<?xml version="1.0" standalone="no"?>
<!DOCTYPE svg PUBLIC "-//W3C//DTD SVG 20010904//EN"
 "http://www.w3.org/TR/2001/REC-SVG-20010904/DTD/svg10.dtd">
<svg version="1.0" xmlns="http://www.w3.org/2000/svg"
 width="500.000000pt" height="500.000000pt" viewBox="0 0 500.000000 500.000000"
 preserveAspectRatio="xMidYMid meet">

<g transform="translate(0.000000,500.000000) scale(0.100000,-0.100000)"
fill="#000000" stroke="none">
<path d="M957 4753 c-4 -3 -7 -831 -7 -1840 l0 -1833 175 0 175 0 0 -107 c0
-60 4 -114 8 -121 7 -10 288 -12 1373 -10 l1364 3 3 435 2 435 140 -140 140
-140 85 85 85 85 -225 225 -225 225 -2 1230 -3 1230 -172 3 -173 2 0 101 c0
55 -5 109 -10 120 -11 19 -36 19 -1369 19 -747 0 -1361 -3 -1364 -7z m2681
-575 c1 -285 0 -518 -3 -518 -2 0 -33 16 -67 35 -185 101 -302 129 -517 122
-170 -5 -224 -16 -354 -72 -131 -56 -187 -95 -305 -212 l-113 -113 -407 -2
-407 -3 0 -25 0 -25 393 -3 393 -2 -26 -44 c-14 -24 -39 -79 -54 -122 l-29
-79 -430 -3 c-365 -2 -432 -4 -442 -17 -7 -8 -10 -22 -6 -30 5 -13 63 -15 433
-17 l428 -3 -5 -40 c-3 -22 -5 -88 -5 -148 l0 -107 -422 0 c-421 0 -422 0
-428 -21 -5 -14 -2 -25 6 -30 8 -5 204 -9 437 -9 414 0 422 0 422 -20 0 -16
47 -171 66 -217 4 -9 -7 -13 -39 -13 -47 0 -74 -18 -64 -44 4 -11 26 -16 74
-18 l67 -3 38 -55 c152 -220 360 -359 618 -412 121 -25 312 -20 435 12 80 20
223 83 275 120 15 11 31 20 34 20 3 0 6 -207 6 -460 l0 -460 -1320 0 -1320 0
0 1773 c0 976 3 1777 7 1780 3 4 596 6 1317 5 l1311 -3 3 -517z m352 -350 l0
-632 -41 84 c-50 105 -109 187 -188 265 l-61 59 0 428 0 428 145 0 145 0 0
-632z m-741 -265 c107 -22 240 -93 323 -173 63 -60 68 -68 68 -108 0 -48 -10
-53 -35 -16 -85 131 -316 253 -477 254 l-48 0 0 -50 0 -50 -232 0 -233 0 54
36 c175 118 363 153 580 107z m-169 -243 c0 -40 0 -40 38 -40 21 0 60 -7 86
-16 159 -54 275 -190 294 -343 l7 -56 65 -5 65 -5 3 -233 2 -234 -59 -56
c-224 -216 -562 -262 -842 -115 -69 35 -199 136 -199 153 0 6 151 10 415 10
362 0 416 2 421 15 4 8 1 22 -6 30 -10 13 -79 15 -454 17 l-441 3 -41 82 c-23
45 -46 100 -52 123 l-10 40 493 0 c519 0 526 1 509 44 -6 14 -54 16 -509 16
l-502 0 -7 38 c-9 54 -6 139 7 202 l12 55 498 3 c432 2 498 4 503 17 4 8 1 22
-6 30 -11 13 -80 15 -491 15 -264 0 -479 3 -479 6 0 19 67 138 105 187 l45 57
265 0 265 0 0 -40z m691 -240 c31 -88 33 -104 33 -225 -1 -114 -4 -140 -28
-210 -14 -44 -37 -100 -51 -125 l-24 -45 -1 193 0 192 25 0 c23 0 24 2 19 53
-3 28 -14 85 -25 125 -10 40 -19 100 -19 135 l0 62 20 -30 c10 -16 33 -73 51
-125z m219 -767 l0 -197 -70 69 c-38 38 -70 72 -70 76 0 3 19 35 43 70 23 35
54 90 67 121 14 32 26 58 28 58 1 0 2 -89 2 -197z m0 -975 l0 -438 -1315 0
-1316 0 3 88 3 87 1159 3 c913 2 1162 5 1168 15 4 6 8 228 8 492 l0 480 145
-145 145 -145 0 -437z"/>
<path d="M1455 4567 c-20 -20 -35 -45 -35 -59 0 -19 -8 -27 -37 -37 -21 -8
-73 -27 -115 -43 l-78 -30 -65 -109 c-64 -104 -66 -110 -55 -146 13 -48 26
-65 70 -92 85 -52 200 3 217 102 4 28 -3 47 -47 116 -28 46 -49 86 -45 89 3 4
43 20 88 37 l82 31 32 -21 32 -20 -2 -169 -2 -170 -28 -7 c-70 -19 -146 -119
-117 -154 18 -21 341 -22 359 -1 27 32 -38 120 -111 151 l-38 15 0 168 0 169
25 13 c14 7 25 17 25 21 0 8 143 -41 176 -59 9 -5 0 -27 -36 -87 -31 -50 -50
-92 -50 -111 0 -64 75 -134 145 -134 69 0 145 69 145 132 0 19 -24 69 -62 134
l-63 103 -111 42 c-101 37 -113 44 -118 69 -9 49 -46 81 -99 87 -43 5 -49 3
-82 -30z m-188 -354 c-3 -2 -30 -3 -60 -1 l-56 3 30 49 31 49 30 -47 c16 -27
27 -50 25 -53z m612 47 l31 -50 -65 0 -65 0 31 50 c17 28 32 50 34 50 2 0 17
-22 34 -50z m-589 -119 c0 -15 -51 -51 -72 -51 -27 0 -74 26 -81 45 -5 13 6
15 73 15 44 0 80 -4 80 -9z m630 0 c0 -14 -27 -39 -51 -46 -37 -12 -99 17 -99
46 0 5 34 9 75 9 41 0 75 -4 75 -9z m-347 -164 c18 -8 38 -21 46 -30 12 -16 5
-17 -88 -17 -112 0 -126 10 -58 40 50 23 58 24 100 7z"/>
<path d="M2293 4384 c-16 -41 11 -44 428 -44 339 0 398 2 409 15 7 8 10 22 6
30 -5 13 -59 15 -421 15 -376 0 -416 -2 -422 -16z"/>
<path d="M2180 4115 c-7 -8 -10 -22 -6 -30 5 -13 83 -15 641 -15 558 0 636 2
641 15 4 8 1 22 -6 30 -19 23 -1251 23 -1270 0z"/>
<path d="M1270 3645 c-7 -8 -10 -22 -6 -30 8 -22 521 -23 530 0 3 8 -2 21 -10
30 -23 22 -495 23 -514 0z"/>
<path d="M1533 2266 c-257 -65 -422 -305 -385 -558 36 -250 245 -432 497 -432
375 0 615 380 454 720 -53 113 -158 207 -284 253 -75 28 -208 36 -282 17z
m261 -78 c245 -82 365 -371 250 -606 -38 -78 -123 -161 -209 -203 -68 -33 -73
-34 -190 -34 -116 0 -123 1 -189 34 -274 134 -335 493 -122 707 121 121 292
159 460 102z"/>
<path d="M1516 2096 c-74 -31 -156 -110 -188 -180 -32 -72 -33 -210 -1 -278
30 -66 105 -143 172 -175 48 -24 68 -28 146 -28 76 0 99 4 145 26 262 123 273
483 18 619 -55 30 -74 34 -148 37 -73 3 -93 0 -144 -21z m225 -53 c71 -23 149
-98 172 -167 48 -141 -8 -285 -138 -351 -49 -25 -70 -30 -129 -30 -90 1 -149
28 -211 97 -102 114 -96 279 15 387 77 74 185 98 291 64z"/>
<path d="M1658 1815 l-87 -106 -30 45 c-17 25 -35 47 -40 51 -15 9 -41 -6 -41
-24 0 -27 89 -151 108 -151 17 0 54 41 184 202 49 60 53 88 14 88 -14 0 -47
-32 -108 -105z"/>
<path d="M2714 1831 c-87 -34 -279 -134 -357 -186 -57 -38 -73 -69 -42 -81 8
-4 60 21 117 56 157 94 343 180 389 180 28 0 25 -53 -6 -119 -49 -105 -8 -109
85 -8 71 76 134 115 201 124 47 7 50 -7 19 -76 -11 -24 -20 -52 -20 -63 0 -19
4 -20 65 -14 64 6 218 47 265 69 30 14 38 45 15 53 -9 4 -56 -5 -103 -20 -48
-14 -102 -29 -120 -32 l-32 -7 6 55 c6 49 4 58 -16 78 -20 20 -30 22 -79 17
-54 -4 -123 -33 -178 -73 -22 -16 -23 -15 -23 8 0 13 -9 34 -20 46 -28 30 -78
28 -166 -7z"/>
<path d="M2883 1490 c-200 -21 -370 -40 -378 -44 -19 -7 -19 -42 0 -50 14 -5
797 70 823 79 7 3 12 15 10 27 -3 20 -10 23 -48 25 -25 1 -208 -16 -407 -37z"/>
<path d="M1059 731 c-89 -29 -99 -54 -99 -253 0 -102 4 -161 13 -177 20 -40
62 -64 119 -68 102 -8 158 48 158 160 l0 57 -60 0 -60 0 0 -54 c0 -63 -7 -86
-25 -86 -21 0 -25 26 -25 178 0 155 7 185 34 163 11 -9 16 -30 16 -67 l0 -54
60 0 60 0 0 50 c0 62 -20 113 -52 134 -29 19 -104 28 -139 17z"/>
<path d="M2340 485 l0 -245 60 0 60 0 0 100 0 100 40 0 c85 0 120 43 120 148
0 109 -44 142 -190 142 l-90 0 0 -245z m165 100 c0 -55 -2 -60 -22 -63 -22 -3
-23 0 -23 63 0 63 1 66 23 63 20 -3 22 -8 22 -63z"/>
<path d="M2960 485 l0 -245 60 0 60 0 0 245 0 245 -60 0 -60 0 0 -245z"/>
<path d="M3630 700 l0 -30 60 0 60 0 0 30 0 30 -60 0 -60 0 0 -30z"/>
<path d="M1333 635 c-40 -17 -53 -42 -53 -99 l0 -46 55 0 55 0 0 51 c0 43 3
50 18 47 13 -3 17 -13 17 -48 l0 -45 -70 -35 -70 -35 -3 -76 c-3 -73 -1 -78
24 -98 31 -25 58 -26 97 -7 15 8 27 11 27 5 0 -5 27 -9 60 -9 l60 0 0 163 c0
109 -4 170 -13 187 -26 53 -132 77 -204 45z m86 -321 c-18 -21 -29 -7 -29 38
0 25 7 49 18 61 16 19 17 18 20 -33 2 -29 -2 -58 -9 -66z"/>
<path d="M1634 634 c-38 -19 -54 -51 -54 -108 0 -54 18 -78 91 -120 46 -28 54
-37 54 -62 0 -22 -5 -29 -20 -29 -15 0 -21 8 -23 33 -3 32 -3 32 -59 32 l-56
0 6 -46 c6 -59 36 -91 93 -100 63 -9 113 3 146 36 23 24 28 37 28 80 0 66 -10
84 -68 116 -67 39 -82 54 -82 81 0 35 34 27 38 -10 3 -26 6 -27 58 -27 l54 0
0 33 c0 18 -7 43 -16 56 -34 48 -129 65 -190 35z"/>
<path d="M1940 632 c-55 -27 -70 -69 -70 -192 0 -123 15 -165 70 -192 98 -50
210 14 210 120 l0 32 -59 0 -60 0 -3 -47 c-2 -35 -7 -48 -18 -48 -12 0 -15 14
-15 65 l0 65 78 3 77 3 0 52 c0 96 -55 157 -140 157 -19 0 -51 -8 -70 -18z
m88 -95 c3 -32 0 -37 -17 -37 -17 0 -21 6 -21 33 0 61 33 63 38 4z"/>
<path d="M2710 632 c-55 -27 -70 -69 -70 -192 0 -123 15 -165 70 -192 64 -33
156 -16 194 35 19 25 21 42 21 156 0 106 -3 131 -18 155 -35 54 -130 72 -197
38z m88 -64 c14 -14 17 -225 3 -247 -5 -8 -16 -11 -25 -8 -13 5 -16 26 -16
130 0 137 6 157 38 125z"/>
<path d="M3170 632 c-41 -20 -60 -53 -60 -104 l0 -38 54 0 55 0 3 48 c2 34 7
47 18 47 11 0 16 -13 18 -48 l3 -47 -63 -29 c-85 -38 -91 -47 -86 -127 3 -55
8 -70 27 -85 28 -23 62 -24 101 -4 17 9 30 11 30 5 0 -6 24 -10 55 -10 l55 0
0 173 c0 195 -4 209 -68 227 -54 15 -102 12 -142 -8z m90 -263 c0 -52 -2 -60
-17 -57 -24 4 -29 62 -8 94 8 13 18 24 20 24 3 0 5 -27 5 -61z"/>
<path d="M3561 624 c-30 -25 -31 -25 -31 -5 0 19 -6 21 -55 21 l-55 0 0 -200
0 -200 60 0 60 0 0 119 c0 127 8 151 51 151 17 0 19 8 19 70 0 39 -4 70 -9 70
-5 0 -23 -12 -40 -26z"/>
<path d="M3840 632 c-41 -20 -60 -53 -59 -102 0 -52 21 -81 86 -120 50 -30 58
-40 58 -65 0 -20 -6 -31 -17 -33 -15 -3 -18 4 -18 32 l0 36 -55 0 -55 0 0 -45
c0 -78 62 -116 165 -101 57 9 84 31 94 79 19 80 -6 121 -103 179 -35 21 -46
33 -46 53 0 18 5 25 20 25 16 0 20 -7 20 -30 0 -30 1 -30 55 -30 54 0 55 0 55
30 0 44 -19 77 -55 95 -43 20 -102 19 -145 -3z"/>
<path d="M3630 440 l0 -200 60 0 60 0 0 200 0 200 -60 0 -60 0 0 -200z"/>
</g>
</svg>
